# xmcd CD database file
#
# Track frame offsets:
#	150
#	19979
#	40649
#	65796
#	86520
#	115575
#	136907
#	162063
#	203084
#	227060
#	248333
#	265494
#
# Disc length: 3802 seconds
#
# Revision: 0
# Processed by: cddbd v1.5PL3 Copyright (c) Steve Scherf et al.
# Submitted via: CDex 1.51
#
DISCID=960ed80c
DTITLE=Steven Halpern - Deja Blues
DYEAR=1900
DGENRE=New Age
TTITLE0=Deja-Blues
TTITLE1=Inside the Temple
TTITLE2=Invocation at Eleusis
TTITLE3=Deja-Vu
TTITLE4=Deja-Blues II
TTITLE5=Trippin'
TTITLE6=Moroccan Roll
TTITLE7=Blue Ganges
TTITLE8=Marrakesh
TTITLE9=Astral Glide
TTITLE10=Deja-Blues (reprise)
TTITLE11=Atlantis Rising
EXTD=
EXTT0=
EXTT1=
EXTT2=
EXTT3=
EXTT4=
EXTT5=
EXTT6=
EXTT7=
EXTT8=
EXTT9=
EXTT10=
EXTT11=
PLAYORDER=
